<svg width="39" height="22" viewBox="0 0 39 22" fill="none" xmlns="http://www.w3.org/2000/svg">
<path d="M10 8.67568L15.7265 19.5334C16.0777 20.1993 17.0111 20.2529 17.4363 19.6315L29.5 2" stroke="black" stroke-opacity="0.3" stroke-width="3" stroke-linecap="round"/>
<path d="M0.72 9.848V8.804C0.72 8.644 0.8 8.564 0.96 8.564H2.004C2.164 8.564 2.244 8.64 2.244 8.792V9.848C2.244 10.008 2.164 10.088 2.004 10.088H0.96C0.8 10.088 0.72 10.008 0.72 9.848ZM0.72 16.748V11.132C0.72 10.964 0.8 10.88 0.96 10.88H1.992C2.16 10.88 2.244 10.964 2.244 11.132V16.748C2.244 16.852 2.224 16.92 2.184 16.952C2.152 16.984 2.092 17 2.004 17H0.972C0.804 17 0.72 16.916 0.72 16.748ZM3.75684 12.2H3.27684C3.18084 12.2 3.11284 12.184 3.07284 12.152C3.04084 12.12 3.02484 12.056 3.02484 11.96V11.132C3.02484 10.964 3.10884 10.88 3.27684 10.88H3.75684C3.84484 10.88 3.88884 10.836 3.88884 10.748V9.608C3.88884 9.44 3.97684 9.356 4.15284 9.356H5.16084C5.32884 9.356 5.41284 9.44 5.41284 9.608V10.748C5.41284 10.836 5.46084 10.88 5.55684 10.88H6.49284C6.66084 10.88 6.74484 10.964 6.74484 11.132V11.96C6.74484 12.048 6.72484 12.112 6.68484 12.152C6.65284 12.184 6.58884 12.2 6.49284 12.2H5.55684C5.46084 12.2 5.41284 12.244 5.41284 12.332V14.984C5.41284 15.232 5.46884 15.412 5.58084 15.524C5.69284 15.628 5.87684 15.68 6.13284 15.68H6.61284C6.78084 15.68 6.86484 15.764 6.86484 15.932V16.76C6.86484 16.848 6.84484 16.912 6.80484 16.952C6.77284 16.984 6.70884 17 6.61284 17H5.88084C5.24884 17 4.75684 16.832 4.40484 16.496C4.06084 16.16 3.88884 15.68 3.88884 15.056V12.332C3.88884 12.244 3.84484 12.2 3.75684 12.2ZM8.98331 9.512V9.872C8.98331 10.12 8.89131 10.436 8.70731 10.82L8.07131 12.032C8.01531 12.112 7.93931 12.152 7.84331 12.152C7.70731 12.152 7.63931 12.072 7.63931 11.912V9.524C7.63931 9.364 7.71931 9.284 7.87931 9.284H8.74331C8.90331 9.284 8.98331 9.36 8.98331 9.512ZM12.3862 17H10.1062C9.94616 17 9.86616 16.916 9.86616 16.748V15.98C9.86616 15.892 9.88216 15.832 9.91416 15.8C9.94616 15.76 10.0102 15.74 10.1062 15.74H12.1102C12.5022 15.74 12.6982 15.62 12.6982 15.38V15.32C12.6982 15.128 12.5342 14.944 12.2062 14.768L11.0182 14.108C10.6102 13.9 10.3102 13.676 10.1182 13.436C9.92616 13.196 9.83016 12.888 9.83016 12.512C9.83016 11.952 9.97816 11.54 10.2742 11.276C10.5702 11.012 11.0342 10.88 11.6662 10.88H13.6702C13.8302 10.88 13.9102 10.964 13.9102 11.132V11.912C13.9102 12 13.8942 12.064 13.8622 12.104C13.8302 12.136 13.7662 12.152 13.6702 12.152H12.0022C11.6102 12.152 11.4142 12.252 11.4142 12.452V12.512C11.4142 12.688 11.5862 12.868 11.9302 13.052L13.1422 13.772C13.5582 13.996 13.8502 14.228 14.0182 14.468C14.1862 14.7 14.2702 15.008 14.2702 15.392C14.2702 16.464 13.6422 17 12.3862 17Z" fill="white"/>
<path d="M17.8399 17H16.8319C16.6559 17 16.5679 16.916 16.5679 16.748V10.736C16.5679 10.648 16.5239 10.604 16.4359 10.604H15.0679C14.8999 10.604 14.8159 10.52 14.8159 10.352V9.536C14.8159 9.368 14.8999 9.284 15.0679 9.284H19.6039C19.7719 9.284 19.8559 9.368 19.8559 9.536V10.352C19.8559 10.52 19.7719 10.604 19.6039 10.604H18.2359C18.1399 10.604 18.0919 10.648 18.0919 10.736V16.748C18.0919 16.916 18.0079 17 17.8399 17ZM20.7122 9.848V8.804C20.7122 8.644 20.7922 8.564 20.9522 8.564H21.9962C22.1562 8.564 22.2362 8.64 22.2362 8.792V9.848C22.2362 10.008 22.1562 10.088 21.9962 10.088H20.9522C20.7922 10.088 20.7122 10.008 20.7122 9.848ZM20.7122 16.748V11.132C20.7122 10.964 20.7922 10.88 20.9522 10.88H21.9842C22.1522 10.88 22.2362 10.964 22.2362 11.132V16.748C22.2362 16.852 22.2162 16.92 22.1762 16.952C22.1442 16.984 22.0842 17 21.9962 17H20.9642C20.7962 17 20.7122 16.916 20.7122 16.748ZM24.889 17H23.869C23.701 17 23.617 16.916 23.617 16.748V11.132C23.617 10.964 23.701 10.88 23.869 10.88H24.889C25.057 10.88 25.141 10.964 25.141 11.132V11.528H25.189C25.285 11.336 25.445 11.18 25.669 11.06C25.901 10.94 26.165 10.88 26.461 10.88H26.797C27.493 10.88 27.993 11.136 28.297 11.648C28.569 11.136 29.037 10.88 29.701 10.88H30.049C30.665 10.88 31.129 11.048 31.441 11.384C31.761 11.72 31.921 12.204 31.921 12.836V16.748C31.921 16.916 31.837 17 31.669 17H30.649C30.481 17 30.397 16.916 30.397 16.748V12.908C30.397 12.652 30.345 12.472 30.241 12.368C30.137 12.256 29.957 12.2 29.701 12.2H29.401C28.849 12.2 28.573 12.508 28.573 13.124V16.748C28.573 16.916 28.485 17 28.309 17H27.301C27.133 17 27.049 16.916 27.049 16.748V12.908C27.049 12.652 26.993 12.472 26.881 12.368C26.777 12.256 26.597 12.2 26.341 12.2H25.969C25.417 12.2 25.141 12.504 25.141 13.112V16.748C25.141 16.916 25.057 17 24.889 17ZM37.7033 17H35.0513C34.4193 17 33.9313 16.832 33.5873 16.496C33.2433 16.16 33.0713 15.676 33.0713 15.044V12.836C33.0713 12.204 33.2433 11.72 33.5873 11.384C33.9313 11.048 34.4193 10.88 35.0513 10.88H35.9993C36.6313 10.88 37.1193 11.048 37.4633 11.384C37.8073 11.72 37.9793 12.204 37.9793 12.836V14.36C37.9793 14.528 37.8953 14.612 37.7273 14.612H34.7153C34.6193 14.612 34.5713 14.656 34.5713 14.744V15.008C34.5713 15.256 34.6233 15.436 34.7273 15.548C34.8393 15.652 35.0233 15.704 35.2793 15.704H37.7033C37.8713 15.704 37.9553 15.792 37.9553 15.968V16.76C37.9553 16.848 37.9353 16.912 37.8953 16.952C37.8633 16.984 37.7993 17 37.7033 17ZM34.7153 13.592H36.3473C36.4353 13.592 36.4793 13.548 36.4793 13.46V12.884C36.4793 12.628 36.4273 12.448 36.3233 12.344C36.2193 12.24 36.0393 12.188 35.7833 12.188H35.2793C35.0233 12.188 34.8433 12.24 34.7393 12.344C34.6353 12.448 34.5833 12.628 34.5833 12.884V13.46C34.5833 13.548 34.6273 13.592 34.7153 13.592Z" fill="#A362EA"/>
</svg>
